<svg width="501" height="501" viewBox="0 0 501 501" fill="none" xmlns="http://www.w3.org/2000/svg">
<path d="M488.075 103.045C480.317 82.9936 469.131 64.8233 455.143 49.5513C441.144 34.2337 424.64 22.061 406.526 13.6951C387.744 4.98583 367.599 0.527912 347.26 0.580166C318.727 0.580166 290.888 9.30193 266.695 25.7764C260.908 29.7173 255.409 34.0459 250.201 38.7621C244.992 34.0459 239.493 29.7173 233.706 25.7764C209.513 9.30193 181.674 0.580166 153.141 0.580166C132.594 0.580166 112.685 4.97336 93.8747 13.6951C75.7014 22.0939 59.3222 34.1751 45.2581 49.5513C31.2516 64.8061 20.0629 82.9806 12.326 103.045C4.28114 123.912 0.171875 146.072 0.171875 168.878C0.171875 190.392 4.10751 212.81 11.9209 235.616C18.461 254.674 27.8371 274.444 39.8176 294.407C58.8013 325.999 84.9038 358.948 117.315 392.349C171.025 447.716 224.214 485.963 226.471 487.513L240.188 497.333C246.265 501.662 254.078 501.662 260.155 497.333L273.872 487.513C276.129 485.898 329.26 447.716 383.028 392.349C415.439 358.948 441.542 325.999 460.526 294.407C472.506 274.444 481.94 254.674 488.422 235.616C496.236 212.81 500.171 190.392 500.171 168.878C500.229 146.072 496.12 123.912 488.075 103.045V103.045Z" fill="white"/>
</svg>
