<svg width="726" height="781" viewBox="0 0 726 781" fill="none" xmlns="http://www.w3.org/2000/svg">
<mask id="path-1-inside-1_12_2" fill="white">
<path d="M166.5 161.5C186.667 175.647 203.443 188.473 213.5 206.5C214.086 202.502 213.5 199 215 198C225.292 210.69 231.621 224.283 233 241.5C235.249 238.21 234.336 235.919 237.5 230C240.806 243.227 243.602 250.662 244 264C246.001 258.796 246.074 256.676 249.5 254C257.971 277.118 262.105 289.608 260.5 305C261.917 300.103 262.894 297.232 265.5 291.5C272.138 307.296 272.581 315.594 274 330.5C275.608 324.802 275.533 324.578 279.5 321C284.45 329.155 284.668 336.625 286.5 347C287.398 341.403 289.011 339.077 293 335.5C301.86 352.285 305.135 362.446 310 381C307.973 365.859 306.05 358.641 306.5 339.5C310.991 342.42 311.969 344.066 314 347C310.786 331.136 308.028 322.662 307 305C310.5 305.5 312.103 305.401 314 308C311.47 296.874 311.021 289.517 311 275.5C316.996 280.14 318.165 284.642 320.5 290.5C315.113 273.083 313.577 264.274 312.5 244.5C317.608 247.077 316.641 248.387 318 252C315.149 241.056 314.924 229.49 315 215.5C319.751 220.151 321.239 222.467 323.5 226.5C319.467 212.264 318.715 205.879 318 189C322.372 191.365 323.668 193.456 325.5 197.5C323.096 179.483 321.912 167.362 324.5 146.5C329.85 149.317 330.954 151.903 332 157C330.356 144.579 329.468 137.601 332 123.5C335 124.868 336.249 126.02 338 128.5C336.058 116.59 336.237 111.502 341 108C337.178 96.5417 338.643 92.4476 339.5 79.5C342.896 81.1865 343.808 82.1879 345 84C342.562 73.3565 343.429 73.2101 345 59.5C348.645 62.7578 350.3 64.7782 352 69C351.144 41.58 354.573 27.623 359.5 0C364.01 23.6586 366.282 37.0618 367.5 62.5C370.25 59.7594 371.91 59.2515 375 59.5C376.151 70.7865 376.059 76.8879 375 87.5C376.641 82.9869 378.059 81.4422 381 79.5C381.125 90.6642 380.893 96.9143 378.5 108C382.5 116.5 383.714 117.773 382.5 130C384.47 126.346 383.636 125.947 386.5 124.5C387.273 136.798 388.122 148.225 385 162C387.931 155.838 389.636 152.849 393 150C396.017 168.578 396.625 179.189 395.5 198.5C397.22 194.497 398.196 191.125 400 189.5C401.504 201.152 399.723 211.188 397.5 224C399.881 219.409 401.304 217.433 404 215C403.734 229.07 403.293 241.487 398.5 256C402.495 249.981 402.887 248.89 407.5 246C406.62 261.928 404.719 272.891 401.5 289C403.736 283.518 405.251 280.86 408.5 277C409.679 288.586 409.427 295.327 406.5 308C409.504 305.263 410.423 304.865 411.5 305C410.833 323.318 409.138 333.771 405.5 352.5C407.063 346.067 408.608 343.03 413 339C415.322 349.393 412.169 357.083 409.5 373.5C413.898 356.94 419.008 347.844 427.5 333C429.303 339.455 430.068 342.415 434 347C435.162 336.273 436.408 330.328 441 320C443.2 324.132 443.477 326.643 446 328.5C446.636 313.001 447.548 305.84 453.5 290C455.288 293.605 456.526 295.18 459 297.5C461.469 284.804 464 278.5 467.5 271C466.71 266.236 468.525 261.205 469.5 254C472.148 256.914 473.446 258.261 475 259.5C475.12 248.83 476.348 242.208 482 228.5C483.692 233.634 484.663 236.093 486.5 238.5C489.17 224.865 491.716 216.953 501.5 201.5C504.486 202.766 505.591 203.842 506.5 206.5C518.169 180.773 535.214 170.426 558 156C544.515 185.081 536.146 200.699 528.5 221.5C531.02 217.887 533.5 217.5 537 217C531.576 226.822 527.089 235.304 522 248C526.802 245.563 528.73 245.44 532 245.5C524.167 256.874 521.411 263.656 519.5 276.5C524.76 272.327 525.768 270.948 531.5 270.5C528.333 279.884 522.713 289.041 514.5 299.5C518.022 298.201 518.939 297.587 522 297.5C520.535 307.032 517.103 315.252 510 331C514.8 327.108 516.063 326.556 517.5 326.5C511.312 340.029 506.657 347.472 496.5 360.5C502.481 360.543 505.586 359.926 511 358.5C501.68 366.263 496.774 371.554 488.5 382.5C494.254 383.264 496.69 381.94 501 379.5C491.027 394.822 484.304 402.347 471.5 415C478.768 412.606 482.093 411.013 487.5 408C480.233 415.749 474.057 423.631 469.5 431.5C481.04 424.329 485.658 421.859 498 423.5C505.887 413.541 513.21 410.548 523.5 407.5C519.634 412.989 521 411.5 520.5 415C528.448 406.833 532.631 406.831 541.5 403C538.434 408.418 535.643 413.669 535.5 418.5C545.436 410.017 551.202 405.789 562.5 401C561.682 408.034 560.274 411.834 557 418.5C568.334 407.231 575.032 401.493 589.5 395.5C589.517 399.892 588.956 401.958 587 405C595.813 397.448 600.495 394.45 610.5 390.5C607.788 397.454 606.253 400.547 603.5 405.5C615.927 389.639 623.669 382.259 640.5 375C634.281 381.828 634.746 383.467 633.5 386C670.629 358.241 687.301 350.104 726 342C701.396 359.442 688.164 368.039 659.5 394C661.973 394.551 665.3 392.788 667.5 393C658.838 403.236 650.83 410.657 633.5 418.5C638.38 419.133 640.802 418.976 645 418.5C636.633 426.266 631.148 430.243 617.5 435.5C623.6 435.748 626.468 435.461 631 434.5C623.679 441.964 618.205 444.931 606.5 448.5C609.222 450.012 610.89 450.358 614 450.5C598.888 458.638 583.038 465.285 557 471C564.961 471.523 569.442 471.479 577.5 470C571.549 477.714 565.018 479.525 550.5 480.5C550.936 483.257 552.036 484.045 554.5 485C549.973 490.242 540.146 492.477 520 492C521.541 495.198 522.968 496.016 525.5 497.5C511.478 496.297 498.381 496.464 485.5 501C509.16 501.402 520.337 501.752 541 508C532.988 509.4 527.672 510.192 527 515C548.855 509.851 558.09 512.876 578 524C566.975 524.889 560.952 525.861 550.5 528.5C574.686 531.184 584.486 535.412 595 548C585.694 546.154 579.036 542.987 572 543C588.475 549.258 596.613 554.505 609.5 566.5C602.811 563.037 599.417 561.804 594.5 562C618.412 585.255 630.629 600.166 645 630.5C631.227 618.434 623.47 607.87 606.5 597C604.903 598.946 606 600.5 606.5 604C602 599.5 599.277 599.407 593.5 595.5C593.5 597.5 595 598.5 594.5 602.5C587.532 595.519 583.401 593.166 575.5 592.5C569.702 586.03 566.364 584.335 560 581.5C558.5 582.5 557 581.5 557 585.5C548.41 583.055 544.462 580.037 537.5 574.5C535.816 575.929 535.448 577.189 535.5 580C528.924 577.948 525.514 575.918 520 570.5C517.289 570.351 518.045 572.921 517.5 576C514.054 572.617 509.897 569.941 505 568C503.773 568.664 503.871 570.237 505 574.5C497.31 570.034 492.841 568.207 484.5 566.5C483.582 568.254 483.948 570.159 485.5 574.5C479.942 569.469 476.238 567.774 469.5 565C465.94 564.333 465.458 565.123 466.5 568C461.504 565.707 457.918 565.252 451 565C461.348 572.921 466.47 577.663 472.5 587.5C467.589 585.078 465.026 585.111 460.5 585.5C472.385 591.91 478.066 596.425 485.5 607C480.876 605.581 479.846 606.093 478 607C487.276 611.718 491.675 614.839 496 622.5C491.553 620.404 489.326 619.789 485.5 619C493.984 625.218 498.171 628.753 500.5 635.5C496.332 633.464 493.913 632.737 489.5 632C506.91 657.948 512.057 673.286 513.5 702C499 673.5 455.045 633.9 454.5 643C439 628.5 429.374 622.792 428 626C421.589 620.553 414.836 611.117 406.5 607.5C402.79 601.058 398.355 597.682 393 594.5C392.389 592.183 390.882 591.865 382.5 583C358.522 668.284 369.294 732.464 377 779.5C370.52 783.155 351.106 776.123 345.5 761.5C344.349 694.242 344.094 652.908 340 586.5L331.5 589.5C324 595 317.555 604.887 306.5 612C301.71 619.12 298.776 622.997 290.5 628.5C289.461 626.814 288.641 626.103 286.5 625.5C283.5 625.5 271.876 641.976 259.5 650C251.446 652.296 246.762 654.283 238 659.5C220.123 673.563 215.787 682.462 209 698.5C205.025 677.167 210.578 662.126 222.5 634.5C219.845 638.299 219.329 637.393 215.5 640C218.5 632.522 221.467 628.885 227 622.5C224.798 622.625 224.96 622.176 222.5 623.5C226.567 616.762 229.515 613.351 236 608C234.213 607.185 234.5 607.5 232 607.5C236.852 600.308 241.224 596.232 248.5 590C246.439 589.594 246.084 589.518 243.5 589.5C250.474 579.59 256.53 573.588 266 565.5C260.156 569.047 256.498 570.396 249.5 572C250.689 569.568 250.935 568.132 251 565.5C243.985 571.007 239.736 573.769 231 577.5C233.389 574.004 234.364 572.15 235.5 569C228.416 574.086 222.719 574.044 213.5 576.5C213.602 574.496 213.43 573.411 213 571.5C209.239 574.953 206.765 576.606 201 578.5C201.101 575.869 200.551 574.476 199.5 572C193.426 578.531 189.691 579.521 180.5 583.5C180.694 580.562 180.293 579.093 179.5 576.5C173.527 582.357 170.116 583.377 161.5 588C161.134 585.639 160.678 585.429 159.5 583.5C154.155 588.925 150.406 590.592 142 594.5C142.03 592.593 141.701 591.617 140.5 590C136.5 596 132.288 597.207 125 602.5C124.848 600.121 125.421 598.345 124 596C119.411 601.808 117.805 603.298 111 608C109.848 606.099 109.884 604.289 110 601C97.1073 613.917 89.9839 618.077 74 629C87.9031 602.721 97.0431 588.719 117.5 566C113.836 566.575 113.612 566.684 109.5 568C117.545 558.746 125.082 553.493 136 546C128.3 547.215 129.154 546.459 122 549.5C133.075 537.11 140.957 532.675 156.5 527C150.702 525.154 149.954 525.29 143 525C156.925 515.075 166.343 512.954 184 511C180.264 510.261 178.605 509.54 176 508C184.938 503.876 190.291 503.727 200 504.5C200.825 503.106 200.241 502.017 200 501C209.39 501.415 214.973 501.123 224 499.5C210.753 500.178 204.884 499.426 193 497C195.124 495.478 196.828 494.924 199 492.5C180.71 492.628 171.525 489.833 164.5 482.5C153.803 478.013 148.03 475.176 138.5 469C149.239 469.966 155.261 469.834 166 469C140.094 465.729 125.905 462.368 102 450C106.419 449.337 110.247 449.573 113.5 450C102.038 446.245 96.0375 441.911 86 434C95.4127 434.22 97.7269 434.271 106 438C91.0242 430.893 85.3633 428.055 73 417C77.8459 416.309 79.5206 417.392 81.5 418C69.4862 410.524 62.55 404.324 52.5 393.5C55.188 392.918 56.5373 393.813 57.5 392.5C35.8305 372.605 26.6841 362.442 0 347.5C21.5151 344.672 44.8142 360.422 81.5 381C79.9939 378.978 77.9621 377.537 78 374C92.4487 380.971 99.3525 387.017 110 397C107.074 394.132 107.955 394.582 107 390C119.014 394.294 122.975 398.085 131.5 404.5C130.988 402.503 130.703 401.365 130.5 397C144.635 402.575 152.781 407.234 164.5 416C159.405 410.367 157.286 407.198 156.5 401.5C168.368 405.379 174.107 408.999 184 416C182.649 410.378 180.251 407.22 176.5 401.5C180.766 400.664 188.539 405.502 200 414.5C199.084 411.708 197.86 410.184 195 407.5C208.141 411.143 214.061 414.781 223.5 422.5C231.934 420.831 239.144 425.349 252.5 434.5C243.297 423.984 237.063 418.108 233 407.5C237.941 410.703 240.584 411.883 245 412.5C233.254 398.948 227.094 391.475 219 379C223.296 377.956 226.705 379.94 231 381L210.5 360C216.058 358.75 218.771 359.262 223.5 360.5C220.638 358.971 212.27 345.3 199.5 325C203.902 326.911 206.414 327.63 211 328C206.291 317.034 203.982 309.558 195 296.5C199.751 295.945 202.051 297.579 205 299C195.041 284.862 189.444 276.924 188 269.5C192.796 272.246 195.73 273.478 201.5 275C196.628 263.529 195.306 257.555 186 244C191.511 243.617 194.137 243.937 197.5 246C190 240.5 179.903 220.959 179.5 215.5C181.5 215.5 186.34 216.008 191 218C178 199 175.5 180.5 166.5 161.5Z"/>
</mask>
<path d="M166.5 161.5C186.667 175.647 203.443 188.473 213.5 206.5C214.086 202.502 213.5 199 215 198C225.292 210.69 231.621 224.283 233 241.5C235.249 238.21 234.336 235.919 237.5 230C240.806 243.227 243.602 250.662 244 264C246.001 258.796 246.074 256.676 249.5 254C257.971 277.118 262.105 289.608 260.5 305C261.917 300.103 262.894 297.232 265.5 291.5C272.138 307.296 272.581 315.594 274 330.5C275.608 324.802 275.533 324.578 279.5 321C284.45 329.155 284.668 336.625 286.5 347C287.398 341.403 289.011 339.077 293 335.5C301.86 352.285 305.135 362.446 310 381C307.973 365.859 306.05 358.641 306.5 339.5C310.991 342.42 311.969 344.066 314 347C310.786 331.136 308.028 322.662 307 305C310.5 305.5 312.103 305.401 314 308C311.47 296.874 311.021 289.517 311 275.5C316.996 280.14 318.165 284.642 320.5 290.5C315.113 273.083 313.577 264.274 312.5 244.5C317.608 247.077 316.641 248.387 318 252C315.149 241.056 314.924 229.49 315 215.5C319.751 220.151 321.239 222.467 323.5 226.5C319.467 212.264 318.715 205.879 318 189C322.372 191.365 323.668 193.456 325.5 197.5C323.096 179.483 321.912 167.362 324.5 146.5C329.85 149.317 330.954 151.903 332 157C330.356 144.579 329.468 137.601 332 123.5C335 124.868 336.249 126.02 338 128.5C336.058 116.59 336.237 111.502 341 108C337.178 96.5417 338.643 92.4476 339.5 79.5C342.896 81.1865 343.808 82.1879 345 84C342.562 73.3565 343.429 73.2101 345 59.5C348.645 62.7578 350.3 64.7782 352 69C351.144 41.58 354.573 27.623 359.5 0C364.01 23.6586 366.282 37.0618 367.5 62.5C370.25 59.7594 371.91 59.2515 375 59.5C376.151 70.7865 376.059 76.8879 375 87.5C376.641 82.9869 378.059 81.4422 381 79.5C381.125 90.6642 380.893 96.9143 378.5 108C382.5 116.5 383.714 117.773 382.5 130C384.47 126.346 383.636 125.947 386.5 124.5C387.273 136.798 388.122 148.225 385 162C387.931 155.838 389.636 152.849 393 150C396.017 168.578 396.625 179.189 395.5 198.5C397.22 194.497 398.196 191.125 400 189.5C401.504 201.152 399.723 211.188 397.5 224C399.881 219.409 401.304 217.433 404 215C403.734 229.07 403.293 241.487 398.5 256C402.495 249.981 402.887 248.89 407.5 246C406.62 261.928 404.719 272.891 401.5 289C403.736 283.518 405.251 280.86 408.5 277C409.679 288.586 409.427 295.327 406.5 308C409.504 305.263 410.423 304.865 411.5 305C410.833 323.318 409.138 333.771 405.5 352.5C407.063 346.067 408.608 343.03 413 339C415.322 349.393 412.169 357.083 409.5 373.5C413.898 356.94 419.008 347.844 427.5 333C429.303 339.455 430.068 342.415 434 347C435.162 336.273 436.408 330.328 441 320C443.2 324.132 443.477 326.643 446 328.5C446.636 313.001 447.548 305.84 453.5 290C455.288 293.605 456.526 295.18 459 297.5C461.469 284.804 464 278.5 467.5 271C466.71 266.236 468.525 261.205 469.5 254C472.148 256.914 473.446 258.261 475 259.5C475.12 248.83 476.348 242.208 482 228.5C483.692 233.634 484.663 236.093 486.5 238.5C489.17 224.865 491.716 216.953 501.5 201.5C504.486 202.766 505.591 203.842 506.5 206.5C518.169 180.773 535.214 170.426 558 156C544.515 185.081 536.146 200.699 528.5 221.5C531.02 217.887 533.5 217.5 537 217C531.576 226.822 527.089 235.304 522 248C526.802 245.563 528.73 245.44 532 245.5C524.167 256.874 521.411 263.656 519.5 276.5C524.76 272.327 525.768 270.948 531.5 270.5C528.333 279.884 522.713 289.041 514.5 299.5C518.022 298.201 518.939 297.587 522 297.5C520.535 307.032 517.103 315.252 510 331C514.8 327.108 516.063 326.556 517.5 326.5C511.312 340.029 506.657 347.472 496.5 360.5C502.481 360.543 505.586 359.926 511 358.5C501.68 366.263 496.774 371.554 488.5 382.5C494.254 383.264 496.69 381.94 501 379.5C491.027 394.822 484.304 402.347 471.5 415C478.768 412.606 482.093 411.013 487.5 408C480.233 415.749 474.057 423.631 469.5 431.5C481.04 424.329 485.658 421.859 498 423.5C505.887 413.541 513.21 410.548 523.5 407.5C519.634 412.989 521 411.5 520.5 415C528.448 406.833 532.631 406.831 541.5 403C538.434 408.418 535.643 413.669 535.5 418.5C545.436 410.017 551.202 405.789 562.5 401C561.682 408.034 560.274 411.834 557 418.5C568.334 407.231 575.032 401.493 589.5 395.5C589.517 399.892 588.956 401.958 587 405C595.813 397.448 600.495 394.45 610.5 390.5C607.788 397.454 606.253 400.547 603.5 405.5C615.927 389.639 623.669 382.259 640.5 375C634.281 381.828 634.746 383.467 633.5 386C670.629 358.241 687.301 350.104 726 342C701.396 359.442 688.164 368.039 659.5 394C661.973 394.551 665.3 392.788 667.5 393C658.838 403.236 650.83 410.657 633.5 418.5C638.38 419.133 640.802 418.976 645 418.5C636.633 426.266 631.148 430.243 617.5 435.5C623.6 435.748 626.468 435.461 631 434.5C623.679 441.964 618.205 444.931 606.5 448.5C609.222 450.012 610.89 450.358 614 450.5C598.888 458.638 583.038 465.285 557 471C564.961 471.523 569.442 471.479 577.5 470C571.549 477.714 565.018 479.525 550.5 480.5C550.936 483.257 552.036 484.045 554.5 485C549.973 490.242 540.146 492.477 520 492C521.541 495.198 522.968 496.016 525.5 497.5C511.478 496.297 498.381 496.464 485.5 501C509.16 501.402 520.337 501.752 541 508C532.988 509.4 527.672 510.192 527 515C548.855 509.851 558.09 512.876 578 524C566.975 524.889 560.952 525.861 550.5 528.5C574.686 531.184 584.486 535.412 595 548C585.694 546.154 579.036 542.987 572 543C588.475 549.258 596.613 554.505 609.5 566.5C602.811 563.037 599.417 561.804 594.5 562C618.412 585.255 630.629 600.166 645 630.5C631.227 618.434 623.47 607.87 606.5 597C604.903 598.946 606 600.5 606.5 604C602 599.5 599.277 599.407 593.5 595.5C593.5 597.5 595 598.5 594.5 602.5C587.532 595.519 583.401 593.166 575.5 592.5C569.702 586.03 566.364 584.335 560 581.5C558.5 582.5 557 581.5 557 585.5C548.41 583.055 544.462 580.037 537.5 574.5C535.816 575.929 535.448 577.189 535.5 580C528.924 577.948 525.514 575.918 520 570.5C517.289 570.351 518.045 572.921 517.5 576C514.054 572.617 509.897 569.941 505 568C503.773 568.664 503.871 570.237 505 574.5C497.31 570.034 492.841 568.207 484.5 566.5C483.582 568.254 483.948 570.159 485.5 574.5C479.942 569.469 476.238 567.774 469.5 565C465.94 564.333 465.458 565.123 466.5 568C461.504 565.707 457.918 565.252 451 565C461.348 572.921 466.47 577.663 472.5 587.5C467.589 585.078 465.026 585.111 460.5 585.5C472.385 591.91 478.066 596.425 485.5 607C480.876 605.581 479.846 606.093 478 607C487.276 611.718 491.675 614.839 496 622.5C491.553 620.404 489.326 619.789 485.5 619C493.984 625.218 498.171 628.753 500.5 635.5C496.332 633.464 493.913 632.737 489.5 632C506.91 657.948 512.057 673.286 513.5 702C499 673.5 455.045 633.9 454.5 643C439 628.5 429.374 622.792 428 626C421.589 620.553 414.836 611.117 406.5 607.5C402.79 601.058 398.355 597.682 393 594.5C392.389 592.183 390.882 591.865 382.5 583C358.522 668.284 369.294 732.464 377 779.5C370.52 783.155 351.106 776.123 345.5 761.5C344.349 694.242 344.094 652.908 340 586.5L331.5 589.5C324 595 317.555 604.887 306.5 612C301.71 619.12 298.776 622.997 290.5 628.5C289.461 626.814 288.641 626.103 286.5 625.5C283.5 625.5 271.876 641.976 259.5 650C251.446 652.296 246.762 654.283 238 659.5C220.123 673.563 215.787 682.462 209 698.5C205.025 677.167 210.578 662.126 222.5 634.5C219.845 638.299 219.329 637.393 215.5 640C218.5 632.522 221.467 628.885 227 622.5C224.798 622.625 224.96 622.176 222.5 623.5C226.567 616.762 229.515 613.351 236 608C234.213 607.185 234.5 607.5 232 607.5C236.852 600.308 241.224 596.232 248.5 590C246.439 589.594 246.084 589.518 243.5 589.5C250.474 579.59 256.53 573.588 266 565.5C260.156 569.047 256.498 570.396 249.5 572C250.689 569.568 250.935 568.132 251 565.5C243.985 571.007 239.736 573.769 231 577.5C233.389 574.004 234.364 572.15 235.5 569C228.416 574.086 222.719 574.044 213.5 576.5C213.602 574.496 213.43 573.411 213 571.5C209.239 574.953 206.765 576.606 201 578.5C201.101 575.869 200.551 574.476 199.5 572C193.426 578.531 189.691 579.521 180.5 583.5C180.694 580.562 180.293 579.093 179.5 576.5C173.527 582.357 170.116 583.377 161.5 588C161.134 585.639 160.678 585.429 159.5 583.5C154.155 588.925 150.406 590.592 142 594.5C142.03 592.593 141.701 591.617 140.5 590C136.5 596 132.288 597.207 125 602.5C124.848 600.121 125.421 598.345 124 596C119.411 601.808 117.805 603.298 111 608C109.848 606.099 109.884 604.289 110 601C97.1073 613.917 89.9839 618.077 74 629C87.9031 602.721 97.0431 588.719 117.5 566C113.836 566.575 113.612 566.684 109.5 568C117.545 558.746 125.082 553.493 136 546C128.3 547.215 129.154 546.459 122 549.5C133.075 537.11 140.957 532.675 156.5 527C150.702 525.154 149.954 525.29 143 525C156.925 515.075 166.343 512.954 184 511C180.264 510.261 178.605 509.54 176 508C184.938 503.876 190.291 503.727 200 504.5C200.825 503.106 200.241 502.017 200 501C209.39 501.415 214.973 501.123 224 499.5C210.753 500.178 204.884 499.426 193 497C195.124 495.478 196.828 494.924 199 492.5C180.71 492.628 171.525 489.833 164.5 482.5C153.803 478.013 148.03 475.176 138.5 469C149.239 469.966 155.261 469.834 166 469C140.094 465.729 125.905 462.368 102 450C106.419 449.337 110.247 449.573 113.5 450C102.038 446.245 96.0375 441.911 86 434C95.4127 434.22 97.7269 434.271 106 438C91.0242 430.893 85.3633 428.055 73 417C77.8459 416.309 79.5206 417.392 81.5 418C69.4862 410.524 62.55 404.324 52.5 393.5C55.188 392.918 56.5373 393.813 57.5 392.5C35.8305 372.605 26.6841 362.442 0 347.5C21.5151 344.672 44.8142 360.422 81.5 381C79.9939 378.978 77.9621 377.537 78 374C92.4487 380.971 99.3525 387.017 110 397C107.074 394.132 107.955 394.582 107 390C119.014 394.294 122.975 398.085 131.5 404.5C130.988 402.503 130.703 401.365 130.5 397C144.635 402.575 152.781 407.234 164.5 416C159.405 410.367 157.286 407.198 156.5 401.5C168.368 405.379 174.107 408.999 184 416C182.649 410.378 180.251 407.22 176.5 401.5C180.766 400.664 188.539 405.502 200 414.5C199.084 411.708 197.86 410.184 195 407.5C208.141 411.143 214.061 414.781 223.5 422.5C231.934 420.831 239.144 425.349 252.5 434.5C243.297 423.984 237.063 418.108 233 407.5C237.941 410.703 240.584 411.883 245 412.5C233.254 398.948 227.094 391.475 219 379C223.296 377.956 226.705 379.94 231 381L210.5 360C216.058 358.75 218.771 359.262 223.5 360.5C220.638 358.971 212.27 345.3 199.5 325C203.902 326.911 206.414 327.63 211 328C206.291 317.034 203.982 309.558 195 296.5C199.751 295.945 202.051 297.579 205 299C195.041 284.862 189.444 276.924 188 269.5C192.796 272.246 195.73 273.478 201.5 275C196.628 263.529 195.306 257.555 186 244C191.511 243.617 194.137 243.937 197.5 246C190 240.5 179.903 220.959 179.5 215.5C181.5 215.5 186.34 216.008 191 218C178 199 175.5 180.5 166.5 161.5Z" fill="#3F7D20" stroke="black" stroke-width="4" mask="url(#path-1-inside-1_12_2)"/>
</svg>
